# xmcd
#
# Track frame offsets: 
#        150
#        9755
#        25542
#        36490
#
# Disc length: 648 seconds
#
# Revision: 2
# Processed by: cddbd v1.5.2PL0 Copyright (c) Steve Scherf et al.
# Submitted via: ExactAudioCopyFreeDBPlugin 1.0
#
DISCID=1f028604
DTITLE=直也 [Naoya] - アイノリ [Ainori]
DYEAR=2001
DGENRE=Folk
TTITLE0=オグの唄 [OG Song]
TTITLE1=りんごの唄 [Apple Song]
TTITLE2=ラブワゴンの唄 [Love Wagon Song]
TTITLE3=なっちゃんの唄 [Natsu-chan's Song]
EXTD=
EXTT0=
EXTT1=
EXTT2=
EXTT3=
PLAYORDER=
